<?xml version="1.0" encoding="UTF-8"?>
<!DOCTYPE svg PUBLIC "-//W3C//DTD SVG 1.1//EN" "http://www.w3.org/Graphics/SVG/1.1/DTD/svg11.dtd">
<!-- Creator: CorelDRAW X8 -->
<svg xmlns="http://www.w3.org/2000/svg" xml:space="preserve" width="3.38666cm" height="1.69332cm" version="1.1" style="shape-rendering:geometricPrecision; text-rendering:geometricPrecision; image-rendering:optimizeQuality; fill-rule:evenodd; clip-rule:evenodd"
viewBox="0 0 3387 1693"
 xmlns:xlink="http://www.w3.org/1999/xlink">
 <defs>
  <style type="text/css">
   <![CDATA[
    .fil1 {fill:#FEFEFE;fill-rule:nonzero}
    .fil0 {fill:url(#id0)}
   ]]>
  </style>
  <radialGradient id="id0" gradientUnits="userSpaceOnUse" gradientTransform="matrix(0.999999 -0 -0 0.999999 0 0)" cx="1093.46" cy="846.66" r="2945.49" fx="1093.46" fy="846.66">
   <stop offset="0" style="stop-opacity:1; stop-color:#F8EC22"/>
   <stop offset="0.0117647" style="stop-opacity:1; stop-color:#FEFEFE"/>
   <stop offset="0" style="stop-opacity:1; stop-color:#F5EB38"/>
   <stop offset="1" style="stop-opacity:1; stop-color:#F2EB4D"/>
  </radialGradient>
 </defs>
 <g id="Layer_x0020_1">
  <metadata id="CorelCorpID_0Corel-Layer"/>
  <g id="_3123970997600">
   <path class="fil0" d="M1093 190c220,0 414,108 533,273l-741 0 0 219 279 0 0 448 24 0 0 0 -415 0 0 -667 -212 0c119,-165 313,-273 532,-273zm71 1156l0 1 272 0 0 -665 279 0 0 -45c23,66 35,136 35,210 0,362 -294,656 -657,656 -161,0 -310,-59 -424,-156l531 0 0 -1 -36 0zm-663 -218c-41,-85 -64,-180 -64,-281 0,-101 23,-197 64,-282l0 563z"/>
   <path class="fil1" d="M1976 1299c0,17 -8,29 -22,34 -10,4 -81,11 -213,21 3,20 14,37 33,51 19,14 38,20 59,20 37,0 70,-11 100,-34 4,-3 8,-6 11,-9 2,0 3,0 4,1 0,0 5,8 13,23 8,16 12,24 12,25 0,1 -2,4 -6,8 -33,35 -76,53 -129,53 -53,0 -95,-16 -127,-47 -32,-32 -47,-74 -47,-127 0,-47 15,-88 45,-123 32,-37 71,-55 117,-55 43,0 79,16 107,47 29,31 43,68 43,112zm-82 -20c0,-19 -7,-36 -22,-51 -15,-15 -32,-22 -51,-22 -21,0 -40,9 -56,25 -17,17 -25,36 -25,57 0,5 4,7 13,7 34,0 74,-3 121,-10 13,-2 20,-4 20,-6z"/>
   <path id="1" class="fil1" d="M2358 1173c0,1 0,3 -1,6 -9,53 -14,98 -14,136 0,2 3,53 9,154l0 5c0,6 -3,9 -9,9 -6,0 -16,1 -28,3 -13,1 -23,2 -29,2 -4,0 -7,-8 -10,-24 -2,-16 -4,-24 -6,-24 -2,0 -8,5 -19,13 -13,11 -26,20 -38,25 -18,10 -36,14 -54,14 -44,0 -82,-18 -112,-53 -29,-34 -43,-73 -43,-118 0,-51 14,-93 43,-126 31,-35 71,-52 120,-52 35,0 66,12 92,36 4,5 10,12 18,20 1,1 2,1 2,1 2,0 4,-7 6,-21 3,-15 6,-22 10,-22 6,0 18,2 35,5 18,4 28,8 28,11zm-88 144c0,-29 -8,-53 -25,-73 -18,-21 -40,-32 -68,-32 -27,0 -50,11 -68,32 -18,21 -27,45 -27,73 0,27 9,51 27,72 18,21 41,31 68,31 27,0 50,-10 68,-32 17,-20 25,-44 25,-71z"/>
   <path id="2" class="fil1" d="M2610 1161c0,26 -2,49 -6,69 0,5 -3,8 -7,8 -4,0 -12,0 -21,-1 -10,-2 -18,-2 -23,-2 -29,0 -47,8 -55,24 -5,10 -7,31 -7,62l0 38c0,12 0,32 1,58 1,26 2,45 2,58 0,6 -3,9 -8,9 -7,0 -18,0 -32,0 -15,0 -25,0 -32,0 -5,0 -8,-3 -8,-9 0,-18 0,-46 1,-84 0,-37 1,-65 1,-84 0,-56 -6,-102 -16,-136 0,-2 -1,-3 -1,-4 0,-3 2,-5 5,-6 8,-1 20,-2 35,-4 25,-5 36,-7 34,-7 4,0 6,7 7,20 2,14 4,21 7,21 0,0 1,0 1,-1 10,-6 19,-12 29,-18 10,-6 20,-11 31,-14 9,-2 21,-4 35,-4 18,0 27,3 27,7z"/>
   <path id="3" class="fil1" d="M2950 1477c0,5 -3,7 -7,7 -8,0 -19,0 -34,0 -15,0 -26,0 -34,0 -4,0 -6,-4 -6,-10 0,-11 0,-28 1,-51 1,-23 1,-40 1,-52 0,-9 0,-23 0,-41 -1,-18 -1,-32 -1,-41 0,-26 -4,-44 -11,-55 -9,-13 -26,-19 -51,-19 -11,0 -27,6 -48,19 -21,13 -32,25 -32,36l0 206c0,5 -2,8 -6,8 -8,0 -19,0 -33,0 -15,0 -26,0 -33,0 -5,0 -8,-3 -8,-8 0,-18 1,-45 1,-82 1,-36 1,-63 1,-81 0,-49 -5,-94 -15,-135 -1,-2 -1,-4 -1,-4 0,-3 2,-4 5,-5 1,-1 14,-3 39,-7 24,-4 37,-6 38,-6 2,0 3,2 3,6 1,14 4,28 8,43 12,-10 28,-21 47,-35 24,-15 47,-22 70,-22 43,0 72,12 88,37 11,19 17,48 17,89 0,7 0,18 0,33 -1,14 -1,25 -1,33 0,15 0,38 1,68 0,31 1,54 1,69z"/>
  </g>
 </g>
</svg>
