<?xml version="1.0" encoding="UTF-8"?>
<!DOCTYPE svg PUBLIC "-//W3C//DTD SVG 1.1//EN" "http://www.w3.org/Graphics/SVG/1.1/DTD/svg11.dtd">
<!-- Creator: CorelDRAW X8 -->
<svg xmlns="http://www.w3.org/2000/svg" xml:space="preserve" width="21cm" height="29.7cm" version="1.1" style="shape-rendering:geometricPrecision; text-rendering:geometricPrecision; image-rendering:optimizeQuality; fill-rule:evenodd; clip-rule:evenodd"
viewBox="0 0 21000 29700"
 xmlns:xlink="http://www.w3.org/1999/xlink">
 <defs>
  <style type="text/css">
   <![CDATA[
    .fil0 {fill:#3E4095}
   ]]>
  </style>
 </defs>
 <g id="Layer_x0020_1">
  <metadata id="CorelCorpID_0Corel-Layer"/>
  <path class="fil0" d="M11223 19512l-38 802 -262 0 -261 0 -36 -748c-42,1 -84,1 -126,1 -33,0 -65,0 -97,-1l-178 784 -257 -45 -258 -46 95 -743c-74,-11 -147,-23 -220,-38l-311 741 -245 -90 -246 -89 222 -715c-71,-23 -141,-49 -210,-75l-434 674 -227 -130 -226 -131 343 -665c-66,-36 -130,-73 -194,-112l-545 590 -200 -168 -200 -168 453 -597c-58,-46 -115,-94 -171,-143l-640 487 -168 -201 -168 -200 551 -509c-50,-55 -98,-112 -144,-170l-715 368 -131 -226 -130 -227 630 -405c-39,-63 -77,-128 -113,-193l-766 238 -90 -246 -89 -245 690 -289c-28,-70 -53,-140 -78,-210l-795 101 -46 -257 -45 -258 730 -165c-15,-73 -28,-146 -39,-220l-802 -38 0 -262 0 -261 748 -36c-1,-42 -1,-84 -1,-126 0,-33 0,-65 1,-97l-784 -178 45 -257 46 -258 743 95c11,-74 23,-147 38,-220l-741 -311 90 -245 89 -246 715 222c23,-71 49,-141 75,-210l-674 -434 130 -227 131 -226 665 343c36,-66 73,-130 112,-194l-590 -545 168 -200 168 -200 597 453c46,-58 94,-115 143,-171l-487 -640 201 -168 200 -168 509 551c55,-50 112,-98 170,-144l-368 -715 226 -131 227 -130 405 630c63,-39 128,-77 193,-113l-238 -766 246 -90 245 -89 289 690c70,-28 140,-53 210,-78l-101 -795 257 -46 258 -45 165 730c73,-15 146,-28 220,-39l38 -802 262 0 261 0 36 748c42,-1 84,-1 126,-1 33,0 65,0 97,1l178 -784 257 45 258 46 -95 743c74,11 147,23 220,38l311 -741 245 90 246 89 -222 715c71,23 141,49 210,75l434 -674 227 130 226 131 -343 665c66,36 130,73 194,112l545 -590 200 168 200 168 -453 597c58,46 115,94 171,143l640 -487 168 201 168 200 -551 509c50,55 98,112 144,170l715 -368 131 227 130 226 -630 405c39,63 77,128 113,193l766 -238 90 246 89 245 -690 289c28,70 53,140 78,210l795 -101 46 257 45 258 -730 165c15,73 28,146 39,220l802 38 0 262 0 261 -748 36c1,42 1,84 1,126 0,33 0,65 -1,97l784 178 -45 257 -46 258 -743 -95c-11,74 -23,147 -38,220l741 311 -90 245 -89 246 -715 -222c-23,71 -49,141 -75,210l674 434 -130 227 -131 226 -665 -343c-36,66 -73,130 -112,194l590 545 -168 200 -168 200 -597 -453c-46,58 -94,115 -143,171l487 640 -201 168 -200 168 -509 -551c-55,50 -112,98 -170,144l368 715 -227 131 -226 130 -405 -630c-63,39 -128,77 -193,113l238 766 -246 90 -245 89 -289 -690c-70,28 -140,53 -210,78l101 795 -257 46 -258 45 -165 -730c-73,15 -146,28 -220,39zm-723 -8121c1910,0 3459,1549 3459,3459 0,1910 -1549,3459 -3459,3459 -1910,0 -3459,-1549 -3459,-3459 0,-1910 1549,-3459 3459,-3459z"/>
 </g>
</svg>
